<?xml version="1.0" encoding="utf-8"?>
<!-- Generator: Adobe Illustrator 23.1.0, SVG Export Plug-In . SVG Version: 6.00 Build 0)  -->
<svg version="1.1" id="Outline" xmlns="http://www.w3.org/2000/svg" xmlns:xlink="http://www.w3.org/1999/xlink" x="0px" y="0px"
	 viewBox="0 0 512 512" style="enable-background:new 0 0 512 512;" xml:space="preserve">
<style type="text/css">
	.st0{fill:#F3DDE6;}
</style>
<path class="st0" d="M432.2,79.8L432.2,79.8c-11.5-11.5-30.1-11.5-41.5,0L256,214.5L121.3,79.8c-11.5-11.5-30.1-11.5-41.5,0l0,0
	c-11.5,11.5-11.5,30.1,0,41.5L214.5,256L79.8,390.7c-11.5,11.5-11.5,30.1,0,41.5l0,0c11.5,11.5,30.1,11.5,41.5,0L256,297.5
	l134.7,134.7c11.5,11.5,30.1,11.5,41.5,0l0,0c11.5-11.5,11.5-30.1,0-41.5L297.5,256l134.7-134.7C443.7,109.9,443.7,91.3,432.2,79.8z
	"/>
</svg>
