<?xml version="1.0" encoding="utf-8"?>
<!-- Generator: Adobe Illustrator 23.1.0, SVG Export Plug-In . SVG Version: 6.00 Build 0)  -->
<svg version="1.1" id="Capa_1" xmlns="http://www.w3.org/2000/svg" xmlns:xlink="http://www.w3.org/1999/xlink" x="0px" y="0px"
	 viewBox="0 0 512 512" style="enable-background:new 0 0 512 512;" xml:space="preserve">
<style type="text/css">
	.st0{fill:#F3DDE6;}
</style>
<g>
	<path class="st0" d="M266.2,304.3v-70h235.7c2.3,12.2,3.5,26.6,3.5,42.2c0,52.5-14.3,117.4-60.6,163.6
		C399.9,487,342.4,512,266.3,512C125.2,512,6.6,397.1,6.6,256S125.2,0,266.3,0C344.4,0,400,30.6,441.7,70.5l-49.4,49.3
		C362.4,91.8,321.8,70,266.2,70c-103,0-183.6,83-183.6,186s80.6,186,183.6,186c66.8,0,104.9-26.8,129.3-51.2
		c19.8-19.8,32.8-48,37.9-86.6L266.2,304.3z"/>
</g>
</svg>
